PathFileType	4	(X/Y/Z)	C:\Users\Basilio\Documents\Thesis Gigler\squatting_fais\c3dfiles\075\SLS_back_pre3\markers_experimental.trc
DataRate	CameraRate	NumFrames	NumMarkers	Units	OrigDataRate	OrigDataStartFrame	OrigNumFrames
200.000000	200.000000	4	61	mm	200.000000	668	1336
Frame#	Time	FHD			LBHD			C7			T10			CLAV			LSHO			LUUPA			LMUPA			LDUPA			LLEP			LMEP			LRAD			LUL			LRFIN			RSHO			RUPA1			RMUPA			RDUPA			RLEP			RMEP			RRAD			RUL			RUFIN			LASI			RASI			USACR			LSACR			RSACR			LTHI1			LTHI2			LTHI3			LTHI4			LLFC			LMFC			LTIB1			LTIB2			LTIB3			LTIB4			LLMAL			LMMAL			LHEE			LMT1			LMT2			LMT5			RTHI			RTHI2			RTHI3			RTHI4			RLFC			RMFC			RTIB1			RTIB2			RTIB3			RTIB4			RLMAL			RMMAL			RHEE			RMT1			RMT2			RMT5			RBHD			
		X1	Y1	Z1	X2	Y2	Z2	X3	Y3	Z3	X4	Y4	Z4	X5	Y5	Z5	X6	Y6	Z6	X7	Y7	Z7	X8	Y8	Z8	X9	Y9	Z9	X10	Y10	Z10	X11	Y11	Z11	X12	Y12	Z12	X13	Y13	Z13	X14	Y14	Z14	X15	Y15	Z15	X16	Y16	Z16	X17	Y17	Z17	X18	Y18	Z18	X19	Y19	Z19	X20	Y20	Z20	X21	Y21	Z21	X22	Y22	Z22	X23	Y23	Z23	X24	Y24	Z24	X25	Y25	Z25	X26	Y26	Z26	X27	Y27	Z27	X28	Y28	Z28	X29	Y29	Z29	X30	Y30	Z30	X31	Y31	Z31	X32	Y32	Z32	X33	Y33	Z33	X34	Y34	Z34	X35	Y35	Z35	X36	Y36	Z36	X37	Y37	Z37	X38	Y38	Z38	X39	Y39	Z39	X40	Y40	Z40	X41	Y41	Z41	X42	Y42	Z42	X43	Y43	Z43	X44	Y44	Z44	X45	Y45	Z45	X46	Y46	Z46	X47	Y47	Z47	X48	Y48	Z48	X49	Y49	Z49	X50	Y50	Z50	X51	Y51	Z51	X52	Y52	Z52	X53	Y53	Z53	X54	Y54	Z54	X55	Y55	Z55	X56	Y56	Z56	X57	Y57	Z57	X58	Y58	Z58	X59	Y59	Z59	X60	Y60	Z60	X61	Y61	Z61	

669	3.34	-91.8395462036133	1383.79638671875	-851.9636230468752	-262.5684204101563	1296.264892578125	-914.029479980469	-318.8135375976563	1219.850830078125	-835.934020996094	-496.5704040527345	959.2298583984377	-784.0590820312502	-220.8991394042969	1106.31494140625	-825.5989379882815	-226.2274627685547	1159.626708984375	-957.0894165039065	-96.18495178222659	1047.99951171875	-1043.275146484375	-65.90100860595705	1066.880493164063	-1009.929260253906	-31.36130905151368	1024.572021484375	-1036.256469726563	47.45431518554688	998.570251464844	-1019.468872070313	17.81612396240235	941.7766113281252	-959.8071899414065	nan	nan	nan	279.6899108886719	1015.472534179688	-901.8784790039065	278.9974670410157	1066.0185546875	-803.9692382812502	-223.8616180419922	1179.601318359375	-701.8057861328126	-114.9340972900391	1110.983764648438	-559.8873901367189	-74.90685272216798	1112.924438476563	-588.1843872070314	-51.96057891845705	1087.5615234375	-538.9055786132814	16.49964332580567	1066.527465820313	-529.5963745117189	11.25744438171387	987.7473144531252	-547.1748657226564	206.2594146728516	1050.763793945313	-733.7985229492189	238.4864044189454	1059.657958984375	-664.5993652343751	280.0244750976563	1085.201416015625	-767.9776000976564	-443.811248779297	752.7080078125001	-922.0816040039065	-408.4879455566407	752.9221801757814	-671.4178466796876	-552.6619873046876	857.0095214843752	-781.8078613281252	-573.6539916992189	831.5327148437502	-807.4716796875002	-569.2987060546876	831.1901855468752	-750.4697265625001	-451.392303466797	553.9280395507814	-1013.514526367188	-394.6123962402345	490.157196044922	-1024.900390625	-355.5925598144532	502.661590576172	-997.4694824218752	-405.433807373047	430.734832763672	-1031.957641601563	-398.5851440429689	345.0372009277344	-1031.146118164063	-378.9295349121094	303.5314636230469	-901.909851074219	-466.8265686035157	239.3867340087891	-990.202087402344	-527.9252929687501	288.1272888183594	-1030.914916992188	-520.2475585937501	247.4844055175782	-1015.881103515625	-593.8323364257814	228.1334075927735	-978.4652099609377	-748.7805175781251	267.6780395507813	-985.471618652344	-721.2993774414064	243.3456573486329	-904.514587402344	-774.8362426757815	322.6561584472657	-939.6679687500002	-793.3552856445315	119.8917236328125	-893.9736938476565	-800.4599609375002	110.3269119262696	-943.0801391601565	-829.9856567382815	146.8248291015625	-988.5941162109377	-401.6888122558595	611.1188964843751	-619.7435913085939	-336.8233947753907	608.3920288085939	-633.3431396484376	-323.5604858398438	636.7369384765626	-647.3720092773439	-293.2356262207032	538.1983642578126	-648.3594360351564	-211.0241394042969	435.2232666015626	-707.1984252929689	-204.8291320800782	454.4907531738282	-829.2753906250002	-206.7283020019532	307.0544738769532	-797.7586669921877	-273.3797607421876	244.9525299072266	-738.2856445312501	-247.8053131103516	231.7505950927735	-777.9008789062502	-281.9126586914063	203.5340423583985	-815.875915527344	-387.1676025390626	112.8823852539063	-772.0679931640627	-360.4612426757813	137.3413543701172	-856.4820556640627	-449.2737426757814	96.13608551025393	-827.4442138671877	-248.7448730468751	54.19300460815431	-840.094421386719	-244.2086029052735	60.80018234252931	-798.1053466796877	-282.3710632324219	41.16839218139649	-744.9343872070314	-215.0510864257813	1337.54248046875	-765.1245117187501	
670	3.345	-91.44639587402345	1383.190185546875	-852.2434082031252	-262.2263488769532	1296.168701171875	-914.3183593750002	-318.5662536621094	1219.634887695313	-836.0706787109377	-496.4954223632814	959.1538696289065	-783.8377685546877	-220.7937164306641	1105.935668945313	-825.8440551757815	-226.2015380859376	1159.388061523438	-957.299987792969	-96.30265808105472	1047.54248046875	-1043.750122070313	-66.17445373535158	1066.414672851563	-1010.11572265625	-31.5091953277588	1023.950317382813	-1036.476318359375	47.39237976074219	998.0190429687502	-1019.862121582031	17.63372039794922	941.3928222656252	-960.1195068359377	nan	nan	nan	279.7667846679688	1014.627563476563	-902.5662841796877	279.1858215332032	1065.369995117188	-804.4224243164065	-223.6393432617188	1179.423706054688	-702.0936279296876	-114.5477523803711	1110.787841796875	-560.2026977539064	-74.59273529052736	1112.62841796875	-588.5356445312501	-51.59103393554689	1087.18701171875	-539.3386230468751	16.8877124786377	1066.145629882813	-530.0802001953126	11.47918796539307	987.3532714843752	-547.7103881835939	206.7700500488282	1050.318359375	-734.5985107421876	238.8244018554688	1059.159423828125	-665.2050781250001	280.2789611816407	1084.56591796875	-768.623474121094	-443.9913024902345	752.1080932617189	-921.748718261719	-408.4362182617189	752.8047485351564	-671.1741943359376	-552.6440429687501	857.0355224609377	-781.5183105468752	-573.7906494140626	831.4617309570315	-807.1074829101565	-569.2548828125001	831.2165527343752	-750.1363525390626	-451.499725341797	553.4395141601564	-1012.961059570313	-395.3555908203126	489.8295288085939	-1024.766479492188	-356.2876586914063	502.1584472656251	-997.482604980469	-407.0069274902345	430.658172607422	-1031.9580078125	-400.2471313476564	344.8432006835938	-1031.0927734375	-379.9115905761719	303.1249084472657	-901.7220458984377	-468.1118469238282	239.0532989501954	-990.2634277343752	-529.0581054687501	287.9134826660157	-1030.455200195313	-521.3934936523439	247.2427215576172	-1015.4072265625	-595.0848999023439	227.9837188720704	-978.4583740234377	-749.7993774414064	267.4829101562501	-984.684753417969	-722.0720214843751	243.2417755126954	-903.727478027344	-775.9670410156252	322.6373901367188	-938.7644042968752	-794.0159301757815	119.6483688354492	-893.092468261719	-801.049743652344	109.6811904907227	-942.2113037109377	-830.8950805664065	146.595687866211	-987.6284790039065	-401.6607666015626	611.1793212890626	-619.3083496093751	-336.8047790527344	608.4065551757814	-632.9805908203126	-323.5654907226563	636.7482299804689	-646.9948730468751	-293.2024536132813	538.2927246093751	-648.0349731445314	-211.0725555419922	435.2208862304689	-706.9678344726564	-204.7380676269532	454.5737915039064	-828.913513183594	-206.8305664062501	307.0924987792969	-797.6582641601565	-273.3027038574219	244.9324951171876	-738.0891723632814	-247.7748718261719	231.7832794189454	-777.772888183594	-282.1261901855469	203.5846099853516	-815.7568969726565	-387.1593627929689	112.8477554321289	-771.9281005859377	-360.4579162597657	137.3511657714844	-856.3079833984377	-449.2495727539064	96.08325958251956	-827.378845214844	-248.8314361572266	54.16582107543947	-840.095642089844	-244.0062408447266	60.88659667968751	-798.1631469726565	-282.3665161132813	41.09602355957032	-744.9107666015626	-214.6371612548829	1337.31494140625	-765.4180908203126	
671	3.35	-92.15117645263673	1382.772216796875	-853.455993652344	-261.8448486328126	1295.988891601563	-914.604919433594	-318.4071655273438	1219.375732421875	-836.1890869140627	-496.4287414550782	959.1313476562502	-783.652038574219	-220.6771392822266	1105.670166015625	-826.0452270507815	-226.2029571533204	1159.080200195313	-957.5217285156252	-96.57479095458987	1047.19677734375	-1044.031127929688	-65.86072540283205	1065.87060546875	-1010.189270019531	-31.7121925354004	1023.578552246094	-1036.751098632813	47.2568702697754	997.4780883789065	-1020.165466308594	17.50116157531739	940.9218750000002	-960.6423339843752	nan	nan	nan	279.8292846679688	1013.939025878906	-903.222106933594	279.3236389160157	1064.706665039063	-805.0402832031252	-223.3601074218751	1179.268920898438	-702.3472290039064	-114.2476196289063	1110.308837890625	-560.5738525390626	-74.23288726806642	1112.426391601563	-588.8498535156251	-51.18928527832033	1086.899047851563	-539.7252807617189	17.20239448547364	1065.814086914063	-530.5445556640626	11.82976150512695	987.044860839844	-548.2106323242189	206.950180053711	1049.827026367188	-735.2455444335939	238.9817657470704	1058.6435546875	-665.8912353515626	280.5757446289063	1083.915405273438	-769.1311035156252	-444.161834716797	752.8727416992189	-922.2208251953127	-408.3504943847657	752.7750854492189	-670.9760742187501	-552.6245727539064	857.0034179687502	-781.2109985351565	-573.7648315429689	831.3923339843752	-806.7746582031252	-569.1677856445314	831.2412719726565	-749.7906494140626	-452.1176147460939	553.0894165039064	-1013.013854980469	-396.0159912109376	489.4008178710939	-1024.500732421875	-357.0971374511719	501.7778625488282	-997.6337890625002	-407.1055908203126	430.1020507812501	-1031.658081054688	-401.1842041015626	344.4664611816407	-1030.879516601563	-380.5408325195313	302.8160400390626	-901.6707153320315	-469.0282287597657	238.8243865966797	-990.0120849609377	-530.0470581054689	287.5032958984376	-1029.942749023438	-522.3091430664064	246.7916412353516	-1014.962341308594	-596.0646362304689	227.729965209961	-977.7216796875002	-751.0204467773439	267.4801025390626	-983.7600708007815	-722.8922729492189	243.1308898925782	-902.8594970703127	-776.9571533203127	322.4489135742188	-937.8399047851565	-794.852966308594	119.5080032348633	-892.1357421875002	-801.318298339844	109.445426940918	-940.591491699219	-831.7534790039065	146.3682708740235	-986.5960083007815	-401.6299743652345	611.1917724609376	-618.8992309570314	-336.8068542480469	608.4347534179689	-632.7300415039064	-323.5701599121094	636.7322998046876	-646.6155395507814	-293.2471618652344	538.2511596679689	-647.7774047851564	-211.0743408203126	435.2296447753907	-706.7003173828126	-204.9644622802735	454.6103515625001	-828.729919433594	-206.7848358154297	307.0260620117188	-797.5324707031252	-273.1985168457032	244.8531036376954	-737.9733276367189	-247.7279052734376	231.7491302490235	-777.6229248046877	-282.0640563964844	203.5885467529297	-815.634948730469	-387.1378784179689	112.7898483276367	-771.7766113281252	-360.6183471679688	137.4107971191407	-856.0780029296877	-449.3146362304689	96.09919738769534	-827.297546386719	-248.7284393310547	54.24775314331056	-840.1040649414065	-244.0554962158204	60.86766815185548	-798.0784912109377	-282.3889160156251	40.97727584838868	-744.9041748046876	-214.2563171386719	1337.020629882813	-765.6458129882814	
672	3.355	-91.76390838623048	1382.334838867188	-853.787780761719	-261.4844055175782	1295.634155273438	-914.9368286132815	-318.2112731933594	1219.156127929688	-836.3716430664065	-496.3829956054689	959.042907714844	-783.4895629882815	-220.4928588867188	1105.417114257813	-826.3178710937502	-226.1295318603516	1158.778198242188	-957.707214355469	-97.00132751464847	1046.740966796875	-1044.094604492188	-65.8027801513672	1065.36328125	-1010.602783203125	-31.87013626098634	1023.113525390625	-1037.072631835938	47.01604080200196	997.0717773437502	-1020.648010253906	17.28603553771973	940.4780883789065	-960.8433837890627	nan	nan	nan	279.7760925292969	1013.257019042969	-903.8093261718752	279.2915344238282	1063.903930664063	-805.884216308594	-223.134994506836	1179.102172851563	-702.5675659179689	-113.9097442626953	1110.1162109375	-561.1128540039064	-73.97911834716798	1112.125854492188	-589.2151489257814	-50.83700561523439	1086.5830078125	-540.0826416015626	17.5588493347168	1065.540405273438	-531.0006103515626	12.10507011413575	986.7278442382815	-548.5513916015626	207.0198669433594	1049.17626953125	-735.9405517578126	239.2192382812501	1058.111694335938	-666.4653930664064	280.6883850097657	1083.190795898438	-769.9788818359377	-444.3903198242189	752.7100219726564	-921.9544677734377	-408.3468627929689	752.7485961914064	-670.7613525390626	-552.6672973632814	857.0173339843752	-780.9405517578127	-573.7718505859376	831.3360595703127	-806.4739379882815	-569.1453857421876	831.2319946289065	-749.5057983398439	-452.6311950683595	552.9173583984376	-1012.780822753906	-396.9779357910157	489.0820922851564	-1024.345703125	-357.7389831542969	501.4794006347657	-997.6076660156252	-407.9436950683595	429.7555541992189	-1031.480346679688	-402.0381774902345	344.0987548828126	-1030.72216796875	-381.1723022460938	302.4533081054688	-901.5421142578127	-469.6234436035157	238.4343566894532	-989.4473266601565	-531.0466918945314	287.2321166992188	-1029.564208984375	-523.3762207031251	246.6169128417969	-1014.642272949219	-596.9387817382814	227.5491333007813	-977.363708496094	-752.0050048828126	267.4037780761719	-982.9910888671877	-723.7678833007814	242.8939208984376	-902.066345214844	-777.8061523437502	322.2717285156251	-937.0178222656252	-795.4093017578127	119.2297821044922	-891.3362426757815	-802.132019042969	109.2080841064453	-939.721130371094	-832.5104980468752	146.1433563232422	-985.7005004882815	-401.5757141113282	611.1857299804689	-618.4845581054689	-336.8199768066407	608.4561157226564	-632.4739990234376	-323.6290588378907	636.7365722656251	-646.2141723632814	-293.2403259277344	538.3220214843751	-647.4778442382814	-211.1350097656251	435.142303466797	-706.3874511718751	-204.9663848876954	454.5144348144532	-828.4256591796877	-206.7761230468751	307.0118408203126	-797.412780761719	-273.1079711914063	244.8386840820313	-737.7703247070314	-247.8114624023438	231.7961425781251	-777.4758300781252	-282.0357666015626	203.6452941894532	-815.5338134765627	-387.139373779297	112.7320022583008	-771.7078247070315	-360.4771118164063	137.440185546875	-856.003112792969	-449.1946105957032	96.0932540893555	-827.2211914062502	-248.8252868652344	54.18870544433595	-840.0527954101565	-244.0645141601563	60.7744827270508	-798.0664062500002	-282.3695373535157	40.91065979003907	-744.9133300781251	-213.7247619628907	1336.828125	-765.9445190429689	
